<svg version="1" xmlns="http://www.w3.org/2000/svg" width="682.667" height="682.667" viewBox="0 0 512.000000 512.000000"><path d="M0 256v256h512V0H0v256zm488-1.5V487H23V22h465v232.5z"/><path d="M48 255v206h415V49H301v45.4c0 35.1.3 45.6 1.3 46.4.6.5 5.5 2.6 10.7 4.5 22.4 8.3 32.7 11.9 36.1 12.7 2 .5 6.9 2.3 11 3.9s10 3.7 13.2 4.7c4 1.2 5.7 2.3 5.7 3.5 0 .9-1.8 5.2-4 9.5-4.3 8.6-14.2 19.7-24 27-14.3 10.7-41.9 18.8-81 23.9-14.4 1.8-22.3 3.5-36.9 7.7-13.2 3.8-23.7 9-33.4 16.7-4.2 3.4-7.8 6.1-8.1 6.1-.2 0-2.3-3.3-4.6-7.3-2.4-3.9-5.6-9.5-7.3-12.2-1.6-2.8-8.3-14-14.8-25-6.6-11-13.3-22.3-15-25-3.6-5.9-7.7-12.8-16.9-28.5-8.9-15.3-12.7-21.5-16.7-27.5-1.8-2.8-3.3-5.8-3.3-6.7 0-3 10.3-10.8 21.5-16.3 15.1-7.4 35.7-12.1 70.5-16 19.6-2.2 39.5-6.6 50.5-11.2 14-5.8 27.7-17 35.2-28.6 2.3-3.7 4.3-6.9 4.3-7.2 0-.3-55.6-.5-123.5-.5H48v206zm42.6-130.3c1.6 1.8 6 9.2 18.6 31.3 3.6 6.3 7.9 13.7 9.6 16.5 1.6 2.7 6.8 11.5 11.5 19.5s10.1 17 12 20c1.8 3 8 13.4 13.7 23 5.6 9.6 12 20.3 14.1 23.7 2.2 3.4 3.9 6.5 3.9 6.8 0 .7 8.2 13.8 9 14.5.3.3 4.7 7.5 9.7 16 5.1 8.5 10.6 17.7 12.2 20.5 5.5 9 17.3 28.9 21.1 35.5 3.6 6.3 25.1 42.5 31.3 52.5 12.7 20.9 13.8 24.5 8.8 29.6-2.4 2.3-3.8 2.9-7.3 2.9-5.4 0-6.8-1.3-13.6-13-2.7-4.7-6.3-10.8-8-13.5-1.6-2.8-6.8-11.5-11.5-19.5s-10.1-17-12-20c-1.9-3-4.3-7.1-5.2-9-1-1.9-3.2-5.8-5-8.5-3.1-4.9-17.9-29.7-21.7-36.4-2.1-3.7-24.9-42.1-30-50.6-1.7-2.8-7.6-12.7-13.1-22-5.5-9.4-11.7-19.7-13.7-23-2-3.3-7.9-13.2-13.2-22-5.2-8.8-14.8-25-21.3-36-6.6-11-13-21.5-14.2-23.4-2.6-3.9-3-8.9-.8-13.1 1.8-3.4 2.7-3.8 8.8-3.9 3.3-.1 5.2.4 6.3 1.6z"/></svg>